<?xml version="1.0" encoding="utf-8"?>
<!-- Generator: Adobe Illustrator 24.0.0, SVG Export Plug-In . SVG Version: 6.00 Build 0)  -->
<svg version="1.1" id="Capa_1" xmlns="http://www.w3.org/2000/svg" xmlns:xlink="http://www.w3.org/1999/xlink" x="0px" y="0px"
	 width="295px" height="201.2px" viewBox="0 0 295 201.2" style="enable-background:new 0 0 295 201.2;" xml:space="preserve">
<style type="text/css">
	.st0{fill:#FFFFFF;}
	.st1{fill:#0C50A2;}
	.st2{fill:none;stroke:#FFFFFF;stroke-width:0.882;stroke-miterlimit:10;}
</style>
<g>
	<path class="st0" d="M192.7,27.1h-89.2C96.1,27.1,90,21,90,13.6v0C90,6.1,96.1,0,103.6,0l89.2,0c7.4,0,13.5,6.1,13.5,13.5v0
		C206.3,21,200.2,27.1,192.7,27.1z"/>
	<g>
		<path class="st1" d="M111.7,7.2h1.4l8.3,10.6V7.2h1.5v13.2h-1.2l-8.6-10.9v10.9h-1.5V7.2z"/>
		<path class="st1" d="M127.5,14.9V7.2h1.5v7.6c0,2.9,1.5,4.5,4,4.5c2.4,0,4-1.5,4-4.4V7.2h1.5v7.6c0,3.9-2.2,5.9-5.5,5.9
			C129.8,20.7,127.5,18.7,127.5,14.9z"/>
		<path class="st1" d="M143.2,7.2h9.6v1.4h-8.1v4.5h7.2v1.4h-7.2v4.6h8.2v1.4h-9.7V7.2z"/>
		<path class="st1" d="M155.9,7.2h1.7l4.7,11.4L167,7.2h1.6l-5.7,13.3h-1.3L155.9,7.2z"/>
		<path class="st1" d="M171,13.9L171,13.9c0-3.7,2.7-6.9,6.8-6.9c4,0,6.7,3.2,6.7,6.8v0c0,3.7-2.7,6.8-6.8,6.8S171,17.6,171,13.9z
			 M183,13.9L183,13.9c0-3-2.2-5.5-5.2-5.5s-5.2,2.4-5.2,5.4v0c0,3,2.2,5.5,5.2,5.5C180.8,19.3,183,16.9,183,13.9z"/>
	</g>
	<g>
		<path class="st0" d="M0.6,45.4h15.8c14.7,0,23.2,8.4,23.2,20.3v0.1c0,11.8-8.6,20.6-23.4,20.6H0.6V45.4z M16.6,76.3
			c6.8,0,11.3-3.8,11.3-10.4v-0.1c0-6.6-4.5-10.4-11.3-10.4H12v20.9H16.6z"/>
		<path class="st0" d="M44.3,45.4h33V55H55.6v6.2h19.7v9H55.6v6.5h22.1v9.7H44.3V45.4z"/>
		<path class="st0" d="M82.2,45.4h11.4v31.1h19.9v10H82.2V45.4z"/>
		<path class="st0" d="M117.4,45.4h11.4v41.1h-11.4V45.4z"/>
		<path class="st0" d="M131.9,45.4h12.7l9.3,26l9.3-26h12.5l-16.7,41.4h-10.6L131.9,45.4z"/>
		<path class="st0" d="M178.6,45.4h33V55h-21.8v6.2h19.7v9h-19.7v6.5h22.1v9.7h-33.3V45.4z"/>
		<path class="st0" d="M216.6,45.4H236c6.3,0,10.6,1.6,13.4,4.5c2.4,2.3,3.6,5.5,3.6,9.6v0.1c0,6.3-3.3,10.4-8.4,12.6l9.8,14.3
			h-13.1L232.9,74h-5v12.4h-11.4V45.4z M235.5,65.1c3.9,0,6.1-1.9,6.1-4.9v-0.1c0-3.2-2.3-4.9-6.2-4.9H228v9.9H235.5z"/>
		<path class="st0" d="M268,71l-15.6-25.7h13l8.4,15l8.5-15H295l-15.6,25.5v15.5H268V71z"/>
	</g>
	<g>
		<path class="st0" d="M0,124.7v-0.2c0-16.4,12.8-29.2,30.2-29.2c9.9,0,16.8,3,22.8,8.2l-9.1,11c-4-3.4-8-5.3-13.6-5.3
			c-8.1,0-14.4,6.8-14.4,15.4v0.2c0,9.1,6.3,15.6,15.2,15.6c3.8,0,6.7-0.8,9-2.3v-6.8H29.1v-11.4H55V145c-5.9,4.9-14.2,8.7-24.4,8.7
			C13.1,153.7,0,141.7,0,124.7z"/>
		<path class="st0" d="M62,96.4h26.6c8.6,0,14.5,2.2,18.3,6.1c3.3,3.2,5,7.5,5,13.1v0.2c0,8.6-4.6,14.3-11.6,17.2l13.4,19.6h-18
			l-11.3-17h-6.8v17H62V96.4z M87.8,123.4c5.3,0,8.3-2.6,8.3-6.7v-0.2c0-4.4-3.2-6.7-8.4-6.7H77.6v13.5H87.8z"/>
		<path class="st0" d="M136.5,96h15l23.9,56.6h-16.7l-4.1-10h-21.7l-4,10h-16.4L136.5,96z M150.1,130.4l-6.3-16l-6.3,16H150.1z"/>
		<path class="st0" d="M185.7,110.1h-16.8V96.4h49.3v13.6h-16.8v42.5h-15.6V110.1z"/>
		<path class="st0" d="M223.7,96.4h15.6v56.2h-15.6V96.4z"/>
		<path class="st0" d="M243.7,144.2l8.7-10.4c5.5,4.4,11.7,6.7,18.2,6.7c4.2,0,6.4-1.4,6.4-3.9v-0.2c0-2.3-1.8-3.6-9.5-5.4
			c-12-2.7-21.2-6.1-21.2-17.7v-0.2c0-10.4,8.3-18,21.7-18c9.5,0,17,2.6,23.1,7.5l-7.8,11c-5.1-3.6-10.8-5.5-15.7-5.5
			c-3.8,0-5.6,1.6-5.6,3.6v0.2c0,2.6,1.9,3.7,9.7,5.5c12.9,2.8,20.9,7,20.9,17.5v0.2c0,11.5-9.1,18.3-22.7,18.3
			C260.1,153.6,250.6,150.4,243.7,144.2z"/>
	</g>
	<line class="st2" x1="76.7" y1="11.2" x2="2.9" y2="11.2"/>
	<line class="st2" x1="294.5" y1="11.4" x2="220.8" y2="11.4"/>
	<g>
		<g>
			<path class="st0" d="M5.1,193.8l-1.2,0.9L3.4,194l1.4-0.6l-1.4-0.6l0.4-0.8l1.2,0.9l-0.2-1.5h0.9l-0.2,1.5l1.2-0.9l0.4,0.8
				l-1.4,0.6l1.4,0.6l-0.4,0.8l-1.2-0.9l0.2,1.5H4.9L5.1,193.8z"/>
			<path class="st0" d="M10.3,191.4h6.4v1.4h-4.9v2.3h4.3v1.4h-4.3v2.3h5v1.4h-6.5V191.4z"/>
			<path class="st0" d="M19.9,191.4h1.4l4.6,6v-6h1.5v8.7h-1.3l-4.8-6.2v6.2h-1.5V191.4z"/>
			<path class="st0" d="M35.8,191.4h3.9c1.1,0,1.9,0.3,2.5,0.9c0.5,0.5,0.7,1.1,0.7,1.9v0c0,1.4-0.9,2.3-2.1,2.6l2.3,3.3h-1.8
				l-2.1-3h-1.9v3h-1.5V191.4z M39.6,195.7c1.1,0,1.8-0.6,1.8-1.4v0c0-0.9-0.7-1.4-1.8-1.4h-2.2v2.9H39.6z"/>
			<path class="st0" d="M46,191.4h1.6l2.6,4.1l2.6-4.1h1.6v8.7H53v-6.2l-2.7,4.1h0l-2.7-4.1v6.2H46V191.4z"/>
			<path class="st0" d="M62.9,191.4h3.4c2,0,3.3,1.1,3.3,2.9v0c0,1.9-1.6,3-3.5,3h-1.7v2.8h-1.5V191.4z M66.2,195.9
				c1.2,0,1.9-0.6,1.9-1.5v0c0-1-0.7-1.5-1.9-1.5h-1.8v3.1H66.2z"/>
			<path class="st0" d="M72,195.7L72,195.7c0-2.5,1.9-4.5,4.5-4.5s4.5,2,4.5,4.5v0c0,2.4-1.9,4.5-4.5,4.5
				C73.9,200.2,72,198.2,72,195.7z M79.5,195.7L79.5,195.7c0-1.7-1.2-3.1-2.9-3.1s-2.9,1.4-2.9,3.1v0c0,1.7,1.2,3.1,2.9,3.1
				S79.5,197.4,79.5,195.7z"/>
			<path class="st0" d="M84.2,191.4H88c1.1,0,1.9,0.3,2.5,0.9c0.5,0.5,0.7,1.1,0.7,1.9v0c0,1.4-0.9,2.3-2.1,2.6l2.3,3.3h-1.8l-2.1-3
				h-1.9v3h-1.5V191.4z M87.9,195.7c1.1,0,1.8-0.6,1.8-1.4v0c0-0.9-0.7-1.4-1.8-1.4h-2.2v2.9H87.9z"/>
			<path class="st0" d="M98.9,195.7L98.9,195.7c0-2.5,1.8-4.5,4.5-4.5c1.6,0,2.6,0.6,3.4,1.3l-1,1.1c-0.7-0.6-1.4-1.1-2.4-1.1
				c-1.6,0-2.9,1.4-2.9,3.1v0c0,1.7,1.2,3.1,2.9,3.1c1.1,0,1.7-0.4,2.5-1.1l1,1c-0.9,0.9-1.9,1.5-3.5,1.5
				C100.8,200.2,98.9,198.2,98.9,195.7z"/>
			<path class="st0" d="M109,195.7L109,195.7c0-2.5,1.9-4.5,4.5-4.5s4.5,2,4.5,4.5v0c0,2.4-1.9,4.5-4.5,4.5
				C110.9,200.2,109,198.2,109,195.7z M116.5,195.7L116.5,195.7c0-1.7-1.2-3.1-2.9-3.1s-2.9,1.4-2.9,3.1v0c0,1.7,1.2,3.1,2.9,3.1
				S116.5,197.4,116.5,195.7z"/>
			<path class="st0" d="M121.1,191.4h1.6l2.6,4.1l2.6-4.1h1.6v8.7h-1.5v-6.2l-2.7,4.1h0l-2.7-4.1v6.2h-1.5V191.4z"/>
			<path class="st0" d="M133.1,191.4h3.4c2,0,3.3,1.1,3.3,2.9v0c0,1.9-1.6,3-3.5,3h-1.7v2.8h-1.5V191.4z M136.4,195.9
				c1.2,0,1.9-0.6,1.9-1.5v0c0-1-0.7-1.5-1.9-1.5h-1.8v3.1H136.4z"/>
			<path class="st0" d="M142.6,191.4h3.9c1.1,0,1.9,0.3,2.5,0.9c0.5,0.5,0.7,1.1,0.7,1.9v0c0,1.4-0.9,2.3-2.1,2.6l2.3,3.3h-1.8
				l-2.1-3h-1.9v3h-1.5V191.4z M146.4,195.7c1.1,0,1.8-0.6,1.8-1.4v0c0-0.9-0.7-1.4-1.8-1.4h-2.2v2.9H146.4z"/>
			<path class="st0" d="M155.9,191.3h1.4l3.8,8.7h-1.6l-0.9-2.1h-4.1l-0.9,2.1H152L155.9,191.3z M158,196.6l-1.5-3.5l-1.5,3.5H158z"
				/>
			<path class="st0" d="M163.1,198.8l0.9-1.1c0.8,0.7,1.7,1.1,2.7,1.1c0.9,0,1.5-0.4,1.5-1.1v0c0-0.6-0.3-1-2-1.3
				c-1.8-0.4-2.9-1-2.9-2.6v0c0-1.5,1.2-2.5,3-2.5c1.3,0,2.3,0.4,3.1,1.1l-0.8,1.1c-0.8-0.6-1.6-0.9-2.3-0.9c-0.9,0-1.4,0.5-1.4,1v0
				c0,0.7,0.4,1,2.1,1.4c1.8,0.4,2.8,1.1,2.8,2.5v0c0,1.6-1.3,2.6-3.1,2.6C165.4,200.2,164.1,199.7,163.1,198.8z"/>
			<path class="st0" d="M177.2,198.8l0.9-1.1c0.8,0.7,1.7,1.1,2.7,1.1c0.9,0,1.5-0.4,1.5-1.1v0c0-0.6-0.3-1-2-1.3
				c-1.8-0.4-2.9-1-2.9-2.6v0c0-1.5,1.2-2.5,3-2.5c1.3,0,2.3,0.4,3.1,1.1l-0.8,1.1c-0.8-0.6-1.6-0.9-2.3-0.9c-0.9,0-1.4,0.5-1.4,1v0
				c0,0.7,0.4,1,2.1,1.4c1.8,0.4,2.8,1.1,2.8,2.5v0c0,1.6-1.3,2.6-3.1,2.6C179.5,200.2,178.2,199.7,177.2,198.8z"/>
			<path class="st0" d="M186.5,195.7L186.5,195.7c0-2.5,1.9-4.5,4.5-4.5c2.7,0,4.5,2,4.5,4.5v0c0,2.4-1.9,4.5-4.5,4.5
				C188.4,200.2,186.5,198.2,186.5,195.7z M194,195.7L194,195.7c0-1.7-1.2-3.1-2.9-3.1c-1.7,0-2.9,1.4-2.9,3.1v0
				c0,1.7,1.2,3.1,2.9,3.1C192.8,198.8,194,197.4,194,195.7z"/>
			<path class="st0" d="M198.6,191.4h3.9c1,0,1.8,0.3,2.3,0.8c0.4,0.4,0.6,0.9,0.6,1.4v0c0,1-0.6,1.6-1.2,1.9c1,0.3,1.7,0.9,1.7,2.1
				v0c0,1.5-1.3,2.4-3.2,2.4h-4V191.4z M203.9,193.8c0-0.7-0.5-1.1-1.5-1.1h-2.2v2.3h2.1C203.2,195,203.9,194.6,203.9,193.8
				L203.9,193.8z M202.6,196.3h-2.4v2.4h2.5c1,0,1.7-0.4,1.7-1.2v0C204.3,196.7,203.8,196.3,202.6,196.3z"/>
			<path class="st0" d="M208.8,191.4h3.9c1.1,0,1.9,0.3,2.5,0.9c0.5,0.5,0.7,1.1,0.7,1.9v0c0,1.4-0.9,2.3-2.1,2.6l2.3,3.3h-1.8
				l-2.1-3h-1.9v3h-1.5V191.4z M212.6,195.7c1.1,0,1.8-0.6,1.8-1.4v0c0-0.9-0.7-1.4-1.8-1.4h-2.2v2.9H212.6z"/>
			<path class="st0" d="M219,191.4h6.4v1.4h-4.9v2.3h4.3v1.4h-4.3v2.3h5v1.4H219V191.4z"/>
			<path class="st0" d="M238.6,193.5c-0.5-0.4-1.1-0.7-1.7-0.8v2.4c1.9,0.5,2.7,1.2,2.7,2.5v0c0,1.3-1.1,2.2-2.6,2.4v1.2h-1.1V200
				c-1.1-0.1-2.1-0.6-2.9-1.2l0.8-1.1c0.7,0.6,1.4,1,2.2,1.1v-2.4c-1.8-0.5-2.6-1.1-2.6-2.5v0c0-1.3,1.1-2.2,2.6-2.4v-0.7h1.1v0.7
				c0.9,0.1,1.6,0.4,2.3,0.9L238.6,193.5z M235.9,194.8v-2.2c-0.8,0.1-1.2,0.5-1.2,1v0C234.7,194.2,235,194.5,235.9,194.8z
				 M236.9,196.5v2.2c0.8-0.1,1.2-0.5,1.2-1.1v0C238.1,197.2,237.8,196.8,236.9,196.5z"/>
			<path class="st0" d="M243.7,192.9l-1.6,0.4l-0.3-1.2l2.3-0.7h1.1v8.7h-1.5V192.9z"/>
			<path class="st0" d="M248.2,198.9l0.9-1.1c0.7,0.6,1.4,1,2.2,1c1,0,1.7-0.6,1.7-1.5v0c0-0.9-0.7-1.4-1.8-1.4
				c-0.6,0-1.1,0.2-1.6,0.4l-0.9-0.6l0.2-4.2h5.2v1.3h-3.9l-0.1,2c0.4-0.1,0.8-0.2,1.4-0.2c1.7,0,3,0.9,3,2.7v0
				c0,1.8-1.3,2.9-3.2,2.9C250.1,200.2,249.1,199.7,248.2,198.9z"/>
			<path class="st0" d="M257.4,198.3h1.6v1.7h-1.6V198.3z"/>
			<path class="st0" d="M261.6,195.7L261.6,195.7c0-2.5,1.5-4.5,3.8-4.5c2.3,0,3.8,2,3.8,4.5v0c0,2.5-1.5,4.5-3.8,4.5
				C263.1,200.2,261.6,198.2,261.6,195.7z M267.6,195.7L267.6,195.7c0-1.7-0.9-3.1-2.2-3.1c-1.3,0-2.2,1.4-2.2,3.1v0
				c0,1.7,0.9,3.1,2.2,3.1C266.7,198.8,267.6,197.4,267.6,195.7z"/>
			<path class="st0" d="M271.8,195.7L271.8,195.7c0-2.5,1.5-4.5,3.8-4.5c2.3,0,3.8,2,3.8,4.5v0c0,2.5-1.5,4.5-3.8,4.5
				S271.8,198.2,271.8,195.7z M277.8,195.7L277.8,195.7c0-1.7-0.9-3.1-2.2-3.1s-2.2,1.4-2.2,3.1v0c0,1.7,0.9,3.1,2.2,3.1
				C276.9,198.8,277.8,197.4,277.8,195.7z"/>
			<path class="st0" d="M282,195.7L282,195.7c0-2.5,1.5-4.5,3.8-4.5c2.3,0,3.8,2,3.8,4.5v0c0,2.5-1.5,4.5-3.8,4.5
				S282,198.2,282,195.7z M288,195.7L288,195.7c0-1.7-0.9-3.1-2.2-3.1s-2.2,1.4-2.2,3.1v0c0,1.7,0.9,3.1,2.2,3.1
				C287.1,198.8,288,197.4,288,195.7z"/>
		</g>
	</g>
</g>
</svg>
