<?xml version="1.0" encoding="utf-8"?>
<!-- Generator: Adobe Illustrator 24.0.0, SVG Export Plug-In . SVG Version: 6.00 Build 0)  -->
<svg version="1.1" id="Capa_1" xmlns="http://www.w3.org/2000/svg" xmlns:xlink="http://www.w3.org/1999/xlink" x="0px" y="0px"
	 width="370px" height="104.7px" viewBox="0 0 370 104.7" style="enable-background:new 0 0 370 104.7;" xml:space="preserve">
<style type="text/css">
	.st0{fill:#FFFFFF;}
	.st1{fill:#061F45;}
</style>
<g>
	<g>
		<path class="st0" d="M36.6,30.3v2.2h-8.6v-2.7c0-7.3-2.8-11.6-9.3-11.6c-6.5,0-9.3,4.3-9.3,11.5c0,18.3,27.4,20,27.4,43
			c0,12.3-5.9,20.4-18.4,20.4S0,85.1,0,72.7v-4.7h8.5v5.1c0,7.3,3,11.6,9.5,11.6s9.5-4.3,9.5-11.6C27.6,55,0.3,53.3,0.3,30.3
			c0-12.6,5.8-20.4,18-20.4C30.7,10,36.6,18,36.6,30.3z"/>
		<path class="st0" d="M50.3,92.3h-8.1V10.8h11.5l18.9,58.9V10.8h8v81.5h-9.4L50.3,26.4V92.3z"/>
		<path class="st0" d="M96.8,75.9l-3.1,16.4h-8.4l15.6-81.5H114l15.6,81.5h-9.1l-3.1-16.4H96.8z M97.9,68.1h18.2l-9.2-47L97.9,68.1z
			"/>
		<path class="st0" d="M170.3,30.5v7.3h-8.6V30c0-7.3-2.9-11.8-9.5-11.8c-6.5,0-9.5,4.4-9.5,11.8v43.1c0,7.3,3,11.8,9.5,11.8
			c6.6,0,9.5-4.4,9.5-11.8V62.5h8.6v10.1c0,12.3-5.8,20.5-18.4,20.5c-12.5,0-18.3-8.1-18.3-20.5V30.5c0-12.3,5.8-20.5,18.3-20.5
			C164.5,10,170.3,18.1,170.3,30.5z"/>
		<path class="st0" d="M190.1,56.9l-4.8,8v27.4h-9.1V10.8h9.1v39.4L207,10.8h9.2l-20.6,37.1l21.3,44.4h-9.3L190.1,56.9z"/>
		<path class="st0" d="M256.3,30.3v2.2h-8.6v-2.7c0-7.3-2.8-11.6-9.3-11.6c-6.5,0-9.3,4.3-9.3,11.5c0,18.3,27.4,20,27.4,43
			c0,12.3-5.9,20.4-18.4,20.4c-12.5,0-18.3-8-18.3-20.4v-4.7h8.5v5.1c0,7.3,3,11.6,9.5,11.6s9.5-4.3,9.5-11.6
			c0-18.2-27.2-19.9-27.2-42.8c0-12.6,5.8-20.4,18-20.4C250.4,10,256.3,18,256.3,30.3z"/>
	</g>
	<g>
		<g>
			<path class="st1" d="M317.6,104.7c-9.3,0-18.4-2.5-26.4-7.1l-24.4,6.6l8-21.7c-2.9-4.1-5.2-8.5-6.8-13.3
				c-1.9-5.4-2.8-11.2-2.8-17c0-7.1,1.4-13.9,4.1-20.4c2.6-6.2,6.4-11.8,11.2-16.6c4.8-4.8,10.4-8.6,16.6-11.2
				c6.5-2.7,13.3-4.1,20.4-4.1c7.1,0,13.9,1.4,20.4,4.1c6.2,2.6,11.8,6.4,16.6,11.2s8.6,10.4,11.2,16.6c2.7,6.5,4.1,13.3,4.1,20.4
				c0,7.1-1.4,13.9-4.1,20.4c-2.6,6.2-6.4,11.8-11.2,16.6c-4.8,4.8-10.4,8.6-16.6,11.2C331.6,103.4,324.7,104.7,317.6,104.7z
				 M292.2,90.9l1.2,0.7c7.3,4.5,15.7,6.9,24.3,6.9c25.4,0,46.1-20.7,46.1-46.1c0-25.4-20.7-46.1-46.1-46.1
				c-25.4,0-46.1,20.7-46.1,46.1c0,10.1,3.2,19.8,9.3,27.8l1,1.4l-5,13.5L292.2,90.9z"/>
		</g>
	</g>
	<g>
		<path class="st0" d="M294.5,68v6.4h-4.9V68H294.5z"/>
		<path class="st0" d="M318.1,39.4v4.1h-4.9v-4.4c0-4.1-1.6-6.6-5.4-6.6c-3.7,0-5.4,2.5-5.4,6.6v24.3c0,4.1,1.7,6.6,5.4,6.6
			c3.8,0,5.4-2.5,5.4-6.6v-6h4.9v5.7c0,7-3.3,11.6-10.4,11.6c-7,0-10.3-4.6-10.3-11.6V39.4c0-7,3.3-11.6,10.3-11.6
			C314.8,27.8,318.1,32.4,318.1,39.4z"/>
		<path class="st0" d="M321.4,74.3V28.3h5.1v41.4h13.2v4.7H321.4z"/>
	</g>
</g>
</svg>
